<svg width="1180" height="610" viewBox="0 0 1180 610" fill="none" xmlns="http://www.w3.org/2000/svg">
  <defs>
    <style>
      <![CDATA[
      @import url('https://fonts.googleapis.com/css2?family=JetBrains+Mono:wght@400;500;600;700&family=Inter:wght@300;400;500;600;700;800&display=swap');
      .fm { font-family: 'JetBrains Mono', 'Fira Code', 'SF Mono', Consolas, monospace; }
      .fs { font-family: 'Inter', -apple-system, BlinkMacSystemFont, 'Segoe UI', sans-serif; }
      .skill-pill { cursor: pointer; }
      .skill-pill:hover rect { fill: rgba(124, 58, 237, 0.15); stroke: #22D3EE; }
      .skill-pill:hover text { fill: #F8FAFC; }
      .social-icon { cursor: pointer; }
      .social-icon:hover circle { stroke: #22D3EE; fill: rgba(34, 211, 238, 0.08); }
      .social-icon:hover path, .social-icon:hover text { fill: #22D3EE; }
      ]]>
    </style>

    <!-- Filters -->
    <filter id="noise">
      <feTurbulence type="fractalNoise" baseFrequency="0.65" numOctaves="4" stitchTiles="stitch" />
      <feColorMatrix type="matrix" values="1 0 0 0 0  0 1 0 0 0  0 0 1 0 0  0 0 0 0.025 0" />
    </filter>
    <filter id="glow-blur">
      <feGaussianBlur stdDeviation="90" />
    </filter>
    <filter id="panel-shadow" x="-8%" y="-8%" width="116%" height="116%">
      <feDropShadow dx="0" dy="12" stdDeviation="20" flood-color="#000" flood-opacity="0.45" />
    </filter>
    <filter id="ascii-glow" x="-20%" y="-20%" width="140%" height="140%">
      <feGaussianBlur stdDeviation="6" result="blur" />
      <feMerge>
        <feMergeNode in="blur" />
        <feMergeNode in="SourceGraphic" />
      </feMerge>
    </filter>

    <!-- Grid -->
    <pattern id="grid" width="32" height="32" patternUnits="userSpaceOnUse">
      <path d="M 32 0 L 0 0 0 32" fill="none" stroke="rgba(255,255,255,0.018)" stroke-width="0.5" />
    </pattern>

    <!-- Gradients -->
    <linearGradient id="ascii-grad" x1="0%" y1="0%" x2="0%" y2="100%">
      <stop offset="0%" stop-color="#22D3EE">
        <animate attributeName="stop-color" values="#22D3EE;#A78BFA;#22D3EE" dur="5s" repeatCount="indefinite" />
      </stop>
      <stop offset="100%" stop-color="#7C3AED">
        <animate attributeName="stop-color" values="#7C3AED;#22D3EE;#7C3AED" dur="5s" repeatCount="indefinite" />
      </stop>
    </linearGradient>
    <linearGradient id="accent" x1="0%" y1="0%" x2="100%" y2="0%">
      <stop offset="0%" stop-color="#7C3AED" />
      <stop offset="50%" stop-color="#22D3EE" />
      <stop offset="100%" stop-color="#10B981" />
    </linearGradient>
    <linearGradient id="border-shimmer" x1="0%" y1="0%" x2="100%" y2="100%">
      <stop offset="0%" stop-color="rgba(255,255,255,0.04)" />
      <stop offset="30%" stop-color="rgba(124,58,237,0.25)" />
      <stop offset="50%" stop-color="rgba(34,211,238,0.4)" />
      <stop offset="70%" stop-color="rgba(16,185,129,0.25)" />
      <stop offset="100%" stop-color="rgba(255,255,255,0.04)" />
      <animate attributeName="x1" values="0%;100%;0%" dur="6s" repeatCount="indefinite" />
      <animate attributeName="y1" values="0%;100%;0%" dur="6s" repeatCount="indefinite" />
      <animate attributeName="x2" values="100%;0%;100%" dur="6s" repeatCount="indefinite" />
      <animate attributeName="y2" values="100%;0%;100%" dur="6s" repeatCount="indefinite" />
    </linearGradient>
    <linearGradient id="scanline-g" x1="0%" y1="0%" x2="100%" y2="0%">
      <stop offset="0%" stop-color="#22D3EE" stop-opacity="0" />
      <stop offset="50%" stop-color="#22D3EE" stop-opacity="0.5" />
      <stop offset="100%" stop-color="#22D3EE" stop-opacity="0" />
    </linearGradient>
    <linearGradient id="bracket-g" x1="0%" y1="0%" x2="100%" y2="0%">
      <stop offset="0%" stop-color="#7C3AED" />
      <stop offset="100%" stop-color="#22D3EE" />
    </linearGradient>
  </defs>

  <!-- ════════════════ BACKGROUND ════════════════ -->
  <rect width="1180" height="610" rx="20" ry="20" fill="#030712" />
  <rect width="1180" height="610" rx="20" ry="20" fill="url(#grid)" />

  <!-- Ambient Glows -->
  <g filter="url(#glow-blur)" opacity="0.7">
    <ellipse cx="180" cy="160" rx="300" ry="240" fill="#22D3EE" opacity="0.07">
      <animate attributeName="cx" values="180;240;180" dur="18s" repeatCount="indefinite" />
    </ellipse>
    <ellipse cx="950" cy="480" rx="320" ry="260" fill="#7C3AED" opacity="0.06">
      <animate attributeName="cx" values="950;880;950" dur="22s" repeatCount="indefinite" />
    </ellipse>
    <ellipse cx="590" cy="300" rx="200" ry="160" fill="#10B981" opacity="0.04">
      <animate attributeName="cy" values="300;340;300" dur="14s" repeatCount="indefinite" />
    </ellipse>
  </g>

  <!-- Particles -->
  <circle cx="120" cy="450" r="1.5" fill="#22D3EE">
    <animate attributeName="opacity" values="0.1;0.5;0.1" dur="7s" repeatCount="indefinite" />
    <animate attributeName="cy" values="450;420;450" dur="7s" repeatCount="indefinite" />
  </circle>
  <circle cx="380" cy="80" r="1" fill="#7C3AED">
    <animate attributeName="opacity" values="0.1;0.6;0.1" dur="9s" repeatCount="indefinite" />
  </circle>
  <circle cx="1080" cy="520" r="1.5" fill="#10B981">
    <animate attributeName="opacity" values="0.1;0.4;0.1" dur="11s" repeatCount="indefinite" />
  </circle>

  <!-- Scanline -->
  <rect x="0" y="-10" width="1180" height="2" fill="url(#scanline-g)" opacity="0.04">
    <animate attributeName="y" values="-10;620" dur="5s" repeatCount="indefinite" />
  </rect>

  <!-- Noise -->
  <rect width="1180" height="610" rx="20" ry="20" filter="url(#noise)" opacity="0.18" pointer-events="none" />

  <!-- ════════════════ LEFT: ASCII "H" MONOGRAM ════════════════ -->
  <g>
    <animateTransform attributeName="transform" type="translate" values="0,0;0,-5;0,0" dur="5s" repeatCount="indefinite" />

    <!-- Bracket corners -->
    <g stroke="url(#bracket-g)" stroke-width="1.5" fill="none" opacity="0.6">
      <animate attributeName="opacity" values="0.4;0.8;0.4" dur="3s" repeatCount="indefinite" />
      <path d="M 85 130 L 60 130 L 60 155" />
      <path d="M 365 130 L 390 130 L 390 155" />
      <path d="M 85 475 L 60 475 L 60 450" />
      <path d="M 365 475 L 390 475 L 390 450" />
    </g>

    <!-- Clean ASCII "H" Art with gradient - 14 lines -->
    <g filter="url(#ascii-glow)">
      <text x="225" y="185" text-anchor="middle" class="fm" font-size="16" font-weight="700" letter-spacing="2" fill="url(#ascii-grad)">
        <tspan x="225" dy="0" opacity="0"><animate attributeName="opacity" to="1" dur="0.05s" begin="0.3s" fill="freeze" />
  ██╗  ██╗</tspan>
        <tspan x="225" dy="24" opacity="0"><animate attributeName="opacity" to="1" dur="0.05s" begin="0.4s" fill="freeze" />
  ██║  ██║</tspan>
        <tspan x="225" dy="24" opacity="0"><animate attributeName="opacity" to="1" dur="0.05s" begin="0.5s" fill="freeze" />
  ██████║</tspan>
        <tspan x="225" dy="24" opacity="0"><animate attributeName="opacity" to="1" dur="0.05s" begin="0.6s" fill="freeze" />
  ██╔══██║</tspan>
        <tspan x="225" dy="24" opacity="0"><animate attributeName="opacity" to="1" dur="0.05s" begin="0.7s" fill="freeze" />
  ██║  ██║</tspan>
        <tspan x="225" dy="24" opacity="0"><animate attributeName="opacity" to="1" dur="0.05s" begin="0.8s" fill="freeze" />
  ╚═╝  ╚═╝</tspan>
      </text>
    </g>

    <!-- Blinking cursor below ASCII -->
    <rect x="221" y="355" width="9" height="18" fill="#22D3EE" opacity="0">
      <animate attributeName="opacity" values="0;1;0" dur="1s" repeatCount="indefinite" begin="1.0s" />
    </rect>

    <!-- Scanline over portrait -->
    <line x1="60" y1="130" x2="390" y2="130" stroke="url(#scanline-g)" stroke-width="2" opacity="0">
      <animate attributeName="y1" values="130;475;130" dur="3.5s" begin="1.2s" repeatCount="indefinite" />
      <animate attributeName="y2" values="130;475;130" dur="3.5s" begin="1.2s" repeatCount="indefinite" />
      <animate attributeName="opacity" values="0;0.5;0" dur="3.5s" begin="1.2s" repeatCount="indefinite" />
    </line>

    <!-- Name under ASCII art -->
    <text x="225" y="405" text-anchor="middle" class="fs" font-size="13" font-weight="600" fill="#94A3B8" letter-spacing="3" opacity="0">
      <animate attributeName="opacity" to="1" dur="0.3s" begin="0.9s" fill="freeze" />
      HEMA CHARAN
    </text>
    <text x="225" y="425" text-anchor="middle" class="fm" font-size="10" fill="#64748B" letter-spacing="2" opacity="0">
      <animate attributeName="opacity" to="1" dur="0.3s" begin="1.0s" fill="freeze" />
      FULL STACK DEVELOPER
    </text>

    <!-- Status indicator -->
    <g opacity="0">
      <animate attributeName="opacity" to="1" dur="0.3s" begin="1.1s" fill="freeze" />
      <circle cx="192" cy="455" r="4" fill="#10B981">
        <animate attributeName="opacity" values="1;0.4;1" dur="2s" repeatCount="indefinite" />
      </circle>
      <text x="203" y="459" class="fm" font-size="11" fill="#10B981">Available for hire</text>
    </g>
  </g>

  <!-- ════════════════ RIGHT: TERMINAL PANEL ════════════════ -->
  <!-- Glass Panel -->
  <rect x="440" y="30" width="710" height="550" rx="14" ry="14" fill="#0F172A" fill-opacity="0.75" stroke="url(#border-shimmer)" stroke-width="1.5" filter="url(#panel-shadow)" />
  <path d="M 440 30 L 750 30 L 520 580 L 440 580 Z" fill="rgba(255,255,255,0.02)" pointer-events="none" />

  <!-- Window chrome -->
  <circle cx="465" cy="52" r="5.5" fill="#FF5F57" />
  <circle cx="485" cy="52" r="5.5" fill="#FEBC2E" />
  <circle cx="505" cy="52" r="5.5" fill="#28C840" />
  <text x="795" y="57" text-anchor="middle" fill="#64748B" class="fs" font-size="12" font-weight="500">hema@dev ~ profile.json</text>
  <line x1="440" y1="72" x2="1150" y2="72" stroke="rgba(255,255,255,0.06)" stroke-width="1" />

  <!-- Shell prompt + typed command -->
  <clipPath id="cmd-clip">
    <rect x="625" y="82" width="0" height="22">
      <animate attributeName="width" to="340" dur="0.8s" begin="0.2s" fill="freeze" />
    </rect>
  </clipPath>
  <text x="470" y="100" class="fm" font-size="13" font-weight="700" fill="#10B981">charan@dev ~ %</text>
  <text x="625" y="100" class="fm" font-size="13" fill="#94A3B8" clip-path="url(#cmd-clip)">cat profile.json | jq</text>
  <rect x="625" y="86" width="8" height="15" fill="#22D3EE">
    <animate attributeName="x" values="625;850;850" keyTimes="0;0.8;1" dur="1s" begin="0.2s" fill="freeze" />
    <animate attributeName="opacity" values="1;0;1" dur="0.7s" repeatCount="indefinite" />
    <animate attributeName="opacity" to="0" dur="0.1s" begin="1.2s" fill="freeze" />
  </rect>

  <!-- ── JSON Output ── -->
  <!-- Greeting -->
  <g opacity="0"><animate attributeName="opacity" to="1" dur="0.2s" begin="1.3s" fill="freeze" />
    <text x="470" y="136" class="fs" font-size="20" font-weight="800" fill="#F8FAFC">Hi, I'm K Hema Charan Reddy</text>
  </g>

  <!-- Animated roles -->
  <clipPath id="r1c"><rect x="470" y="150" width="0" height="22"><animate attributeName="width" to="300" dur="0.8s" begin="r1.begin+0.1s" fill="freeze" /></rect></clipPath>
  <clipPath id="r2c"><rect x="470" y="150" width="0" height="22"><animate attributeName="width" to="260" dur="0.8s" begin="r2.begin+0.1s" fill="freeze" /></rect></clipPath>
  <clipPath id="r3c"><rect x="470" y="150" width="0" height="22"><animate attributeName="width" to="300" dur="0.8s" begin="r3.begin+0.1s" fill="freeze" /></rect></clipPath>
  <clipPath id="r4c"><rect x="470" y="150" width="0" height="22"><animate attributeName="width" to="310" dur="0.8s" begin="r4.begin+0.1s" fill="freeze" /></rect></clipPath>

  <g opacity="0"><animate id="r1" attributeName="opacity" values="0;1;1;0" keyTimes="0;0.05;0.92;1" dur="3.5s" begin="1.6s;r4.end" fill="freeze" />
    <text x="470" y="167" class="fm" font-size="14" font-weight="600" fill="url(#accent)" clip-path="url(#r1c)">~ Full Stack Developer</text>
  </g>
  <g opacity="0"><animate id="r2" attributeName="opacity" values="0;1;1;0" keyTimes="0;0.05;0.92;1" dur="3.5s" begin="r1.end" fill="freeze" />
    <text x="470" y="167" class="fm" font-size="14" font-weight="600" fill="url(#accent)" clip-path="url(#r2c)">~ Software Engineer</text>
  </g>
  <g opacity="0"><animate id="r3" attributeName="opacity" values="0;1;1;0" keyTimes="0;0.05;0.92;1" dur="3.5s" begin="r2.end" fill="freeze" />
    <text x="470" y="167" class="fm" font-size="14" font-weight="600" fill="url(#accent)" clip-path="url(#r3c)">~ AI Enthusiast</text>
  </g>
  <g opacity="0"><animate id="r4" attributeName="opacity" values="0;1;1;0" keyTimes="0;0.05;0.92;1" dur="3.5s" begin="r3.end" fill="freeze" />
    <text x="470" y="167" class="fm" font-size="14" font-weight="600" fill="url(#accent)" clip-path="url(#r4c)">~ Open Source Contributor</text>
  </g>

  <!-- Separator -->
  <line x1="470" y1="185" x2="1120" y2="185" stroke="rgba(255,255,255,0.05)" stroke-width="1" opacity="0">
    <animate attributeName="opacity" to="1" dur="0.2s" begin="1.8s" fill="freeze" />
  </line>

  <!-- Details Grid -->
  <g opacity="0"><animate attributeName="opacity" to="1" dur="0.2s" begin="1.9s" fill="freeze" />
    <text x="470" y="210" class="fm" font-size="12" font-weight="600" fill="#94A3B8">LOCATION</text>
    <text x="600" y="210" class="fm" font-size="12" fill="#CBD5E1">Hyderabad, India</text>
  </g>
  <g opacity="0"><animate attributeName="opacity" to="1" dur="0.2s" begin="2.05s" fill="freeze" />
    <text x="470" y="232" class="fm" font-size="12" font-weight="600" fill="#94A3B8">EDUCATION</text>
    <text x="600" y="232" class="fm" font-size="12" fill="#CBD5E1">B.Tech CSE, KL University (Exp 2027)</text>
  </g>
  <g opacity="0"><animate attributeName="opacity" to="1" dur="0.2s" begin="2.2s" fill="freeze" />
    <text x="470" y="254" class="fm" font-size="12" font-weight="600" fill="#94A3B8">EXPERIENCE</text>
    <text x="600" y="254" class="fm" font-size="12" fill="#CBD5E1">Technical Solution Engineer Intern, Algo Univ.</text>
  </g>
  <g opacity="0"><animate attributeName="opacity" to="1" dur="0.2s" begin="2.35s" fill="freeze" />
    <text x="470" y="276" class="fm" font-size="12" font-weight="600" fill="#94A3B8">GITHUB</text>
    <text x="600" y="276" class="fm" font-size="12" fill="#22D3EE">github.com/HEMACHARANREDDY</text>
  </g>
  <g opacity="0"><animate attributeName="opacity" to="1" dur="0.2s" begin="2.5s" fill="freeze" />
    <text x="470" y="298" class="fm" font-size="12" font-weight="600" fill="#94A3B8">EMAIL</text>
    <text x="600" y="298" class="fm" font-size="12" fill="#CBD5E1">hemacharan499@gmail.com</text>
  </g>
  <g opacity="0"><animate attributeName="opacity" to="1" dur="0.2s" begin="2.65s" fill="freeze" />
    <text x="470" y="320" class="fm" font-size="12" font-weight="600" fill="#94A3B8">PORTFOLIO</text>
    <text x="600" y="320" class="fm" font-size="12" fill="#22D3EE">hemacharanreddy.github.io/portfolio1</text>
  </g>

  <!-- Separator -->
  <line x1="470" y1="338" x2="1120" y2="338" stroke="rgba(255,255,255,0.05)" stroke-width="1" opacity="0">
    <animate attributeName="opacity" to="1" dur="0.2s" begin="2.7s" fill="freeze" />
  </line>

  <!-- Projects section -->
  <g opacity="0"><animate attributeName="opacity" to="1" dur="0.2s" begin="2.8s" fill="freeze" />
    <text x="470" y="360" class="fm" font-size="11" font-weight="700" fill="#64748B" letter-spacing="1.5">PROJECTS</text>
  </g>
  <g opacity="0"><animate attributeName="opacity" to="1" dur="0.2s" begin="2.9s" fill="freeze" />
    <text x="470" y="382" class="fm" font-size="12" fill="#CBD5E1">Meal Mitra (Food Donation)</text>
    <text x="760" y="382" class="fm" font-size="10" fill="#64748B">JS, Node, Express, MongoDB, Gemini</text>
  </g>
  <g opacity="0"><animate attributeName="opacity" to="1" dur="0.2s" begin="3.0s" fill="freeze" />
    <text x="470" y="400" class="fm" font-size="12" fill="#CBD5E1">Clean Mitra (Waste Mgmt)</text>
    <text x="760" y="400" class="fm" font-size="10" fill="#64748B">Java, JavaFX, MongoDB, Maven</text>
  </g>
  <g opacity="0"><animate attributeName="opacity" to="1" dur="0.2s" begin="3.1s" fill="freeze" />
    <text x="470" y="418" class="fm" font-size="12" fill="#CBD5E1">LoadFlow (Load Balancer)</text>
    <text x="760" y="418" class="fm" font-size="10" fill="#64748B">Python, Sockets, Threads, Redis</text>
  </g>

  <!-- Separator -->
  <line x1="470" y1="434" x2="1120" y2="434" stroke="rgba(255,255,255,0.05)" stroke-width="1" opacity="0">
    <animate attributeName="opacity" to="1" dur="0.2s" begin="3.15s" fill="freeze" />
  </line>

  <!-- Tech Stack -->
  <g opacity="0"><animate attributeName="opacity" to="1" dur="0.2s" begin="3.2s" fill="freeze" />
    <text x="470" y="456" class="fm" font-size="11" font-weight="700" fill="#64748B" letter-spacing="1.5">TECH STACK</text>
  </g>
  <g opacity="0"><animate attributeName="opacity" to="1" dur="0.3s" begin="3.3s" fill="freeze" />
    <!-- Row 1 -->
    <g class="skill-pill"><rect x="470" y="468" width="55" height="26" rx="13" fill="rgba(255,255,255,0.03)" stroke="rgba(255,255,255,0.08)" stroke-width="1" /><text x="497.5" y="485" class="fm" font-size="11" font-weight="500" fill="#94A3B8" text-anchor="middle">Java</text></g>
    <g class="skill-pill"><rect x="535" y="468" width="90" height="26" rx="13" fill="rgba(255,255,255,0.03)" stroke="rgba(255,255,255,0.08)" stroke-width="1" /><text x="580" y="485" class="fm" font-size="11" font-weight="500" fill="#94A3B8" text-anchor="middle">JavaScript</text></g>
    <g class="skill-pill"><rect x="635" y="468" width="60" height="26" rx="13" fill="rgba(255,255,255,0.03)" stroke="rgba(255,255,255,0.08)" stroke-width="1" /><text x="665" y="485" class="fm" font-size="11" font-weight="500" fill="#94A3B8" text-anchor="middle">React</text></g>
    <g class="skill-pill"><rect x="705" y="468" width="75" height="26" rx="13" fill="rgba(255,255,255,0.03)" stroke="rgba(255,255,255,0.08)" stroke-width="1" /><text x="742.5" y="485" class="fm" font-size="11" font-weight="500" fill="#94A3B8" text-anchor="middle">Node.js</text></g>
    <g class="skill-pill"><rect x="790" y="468" width="75" height="26" rx="13" fill="rgba(255,255,255,0.03)" stroke="rgba(255,255,255,0.08)" stroke-width="1" /><text x="827.5" y="485" class="fm" font-size="11" font-weight="500" fill="#94A3B8" text-anchor="middle">Express</text></g>
    <g class="skill-pill"><rect x="875" y="468" width="75" height="26" rx="13" fill="rgba(255,255,255,0.03)" stroke="rgba(255,255,255,0.08)" stroke-width="1" /><text x="912.5" y="485" class="fm" font-size="11" font-weight="500" fill="#94A3B8" text-anchor="middle">MongoDB</text></g>

    <!-- Row 2 -->
    <g class="skill-pill"><rect x="470" y="502" width="65" height="26" rx="13" fill="rgba(255,255,255,0.03)" stroke="rgba(255,255,255,0.08)" stroke-width="1" /><text x="502.5" y="519" class="fm" font-size="11" font-weight="500" fill="#94A3B8" text-anchor="middle">Python</text></g>
    <g class="skill-pill"><rect x="545" y="502" width="45" height="26" rx="13" fill="rgba(255,255,255,0.03)" stroke="rgba(255,255,255,0.08)" stroke-width="1" /><text x="567.5" y="519" class="fm" font-size="11" font-weight="500" fill="#94A3B8" text-anchor="middle">SQL</text></g>
    <g class="skill-pill"><rect x="600" y="502" width="80" height="26" rx="13" fill="rgba(255,255,255,0.03)" stroke="rgba(255,255,255,0.08)" stroke-width="1" /><text x="640" y="519" class="fm" font-size="11" font-weight="500" fill="#94A3B8" text-anchor="middle">Tailwind</text></g>
    <g class="skill-pill"><rect x="690" y="502" width="85" height="26" rx="13" fill="rgba(255,255,255,0.03)" stroke="rgba(255,255,255,0.08)" stroke-width="1" /><text x="732.5" y="519" class="fm" font-size="11" font-weight="500" fill="#94A3B8" text-anchor="middle">HTML/CSS</text></g>
    <g class="skill-pill"><rect x="785" y="502" width="45" height="26" rx="13" fill="rgba(255,255,255,0.03)" stroke="rgba(255,255,255,0.08)" stroke-width="1" /><text x="807.5" y="519" class="fm" font-size="11" font-weight="500" fill="#94A3B8" text-anchor="middle">Git</text></g>
    <g class="skill-pill"><rect x="840" y="502" width="50" height="26" rx="13" fill="rgba(255,255,255,0.03)" stroke="rgba(255,255,255,0.08)" stroke-width="1" /><text x="865" y="519" class="fm" font-size="11" font-weight="500" fill="#94A3B8" text-anchor="middle">AWS</text></g>
    <g class="skill-pill"><rect x="900" y="502" width="35" height="26" rx="13" fill="rgba(255,255,255,0.03)" stroke="rgba(255,255,255,0.08)" stroke-width="1" /><text x="917.5" y="519" class="fm" font-size="11" font-weight="500" fill="#94A3B8" text-anchor="middle">C</text></g>
  </g>

  <!-- Social Icons -->
  <g opacity="0"><animate attributeName="opacity" to="1" dur="0.3s" begin="3.5s" fill="freeze" />
    <!-- GitHub -->
    <a href="https://github.com/HEMACHARANREDDY" target="_blank">
      <g class="social-icon" transform="translate(470,544)">
        <circle cx="14" cy="14" r="14" fill="rgba(255,255,255,0.03)" stroke="rgba(255,255,255,0.08)" stroke-width="1" />
        <path d="M14,5 C9.03,5 5,9.03 5,14 C5,17.97 7.58,21.35 11.15,22.54 C11.6,22.62 11.77,22.34 11.77,22.1 C11.77,21.88 11.77,21.32 11.76,20.56 C9.25,21.1 8.71,19.37 8.71,19.37 C8.31,18.34 7.73,18.06 7.73,18.06 C6.93,17.5 7.79,17.51 7.79,17.51 C8.68,17.57 9.15,18.43 9.15,18.43 C9.96,19.81 11.27,19.42 11.8,19.19 C11.88,18.6 12.12,18.21 12.38,17.98 C10.39,17.74 8.3,16.96 8.3,13.57 C8.3,12.6 8.64,11.81 9.17,11.19 C9.08,10.95 8.77,10.06 9.26,8.83 C9.26,8.83 10.01,8.58 11.74,9.73 C12.47,9.52 13.25,9.42 14.03,9.41 C14.81,9.42 15.59,9.52 16.32,9.73 C18.05,8.58 18.8,8.83 18.8,8.83 C19.29,10.06 18.98,10.95 18.89,11.19 C19.42,11.81 19.76,12.6 19.76,13.57 C19.76,16.97 17.67,17.74 15.67,17.97 C16,18.25 16.3,18.8 16.3,19.64 C16.3,20.85 16.29,21.82 16.29,22.08 C16.29,22.32 16.45,22.61 16.92,22.52 C20.47,21.33 23.05,17.95 23.05,14 C23.05,9.03 18.97,5 14,5 Z" fill="#94A3B8" />
      </g>
    </a>
    <!-- LinkedIn -->
    <a href="https://linkedin.com/in/hema-charan-reddy" target="_blank">
      <g class="social-icon" transform="translate(508,544)">
        <circle cx="14" cy="14" r="14" fill="rgba(255,255,255,0.03)" stroke="rgba(255,255,255,0.08)" stroke-width="1" />
        <path d="M10.5,9 C10.5,9.83 9.83,10.5 9,10.5 C8.17,10.5 7.5,9.83 7.5,9 C7.5,8.17 8.17,7.5 9,7.5 C9.83,7.5 10.5,8.17 10.5,9 Z M10.5,12 L7.5,12 L7.5,21 L10.5,21 L10.5,12 Z M13.5,12 L12,12 L12,21 L13.5,21 L13.5,16.5 C13.5,13.5 17.5,13.2 17.5,16.5 L17.5,21 L19,21 L19,15.9 C19,11 14.5,11.2 13.5,13.4 L13.5,12 Z" fill="#94A3B8" />
      </g>
    </a>
    <!-- Twitter -->
    <a href="https://twitter.com/hemacharan" target="_blank">
      <g class="social-icon" transform="translate(546,544)">
        <circle cx="14" cy="14" r="14" fill="rgba(255,255,255,0.03)" stroke="rgba(255,255,255,0.08)" stroke-width="1" />
        <path d="M18.24,8.37 L19.69,8.37 L15.55,13.13 L20.35,19.63 L16.68,19.63 L13.76,15.88 L10.42,19.63 L8.97,19.63 L13.39,14.57 L8.78,8.37 L12.54,8.37 L15.18,11.8 L18.24,8.37 Z M17.52,18.52 L18.42,18.52 L11.65,9.31 L10.68,9.31 L17.52,18.52 Z" fill="#94A3B8" />
      </g>
    </a>
    <!-- Email -->
    <a href="mailto:hemacharan499@gmail.com">
      <g class="social-icon" transform="translate(584,544)">
        <circle cx="14" cy="14" r="14" fill="rgba(255,255,255,0.03)" stroke="rgba(255,255,255,0.08)" stroke-width="1" />
        <path d="M7,9 L21,9 C21.55,9 22,9.45 22,10 L22,18 C22,18.55 21.55,19 21,19 L7,19 C6.45,19 6,18.55 6,18 L6,10 C6,9.45 6.45,9 7,9 Z M7.5,10.5 L14,14.5 L20.5,10.5 M6.5,17.5 L11,14 M17,14 L21.5,17.5" fill="none" stroke="#94A3B8" stroke-width="1.2" stroke-linecap="round" stroke-linejoin="round" />
      </g>
    </a>
  </g>
</svg>
